<svg width="65" height="65" viewBox="0 0 65 65" fill="none" xmlns="http://www.w3.org/2000/svg">
<g clip-path="url(#clip0_150_969)">
<path d="M57.7386 0H7.26139C5.24041 0 3.52495 0.716731 2.11497 2.15022C0.704982 3.5837 0 5.28741 0 7.26139V57.8091C0 59.7831 0.704982 61.475 2.11497 62.885C3.52495 64.295 5.24041 65 7.26139 65H32.5V39.7614H25.3091V30.808H32.5V23.4056C32.5 19.5047 33.6162 16.3088 35.8487 13.8178C38.0812 11.3268 41.5003 10.0813 46.1063 10.0813H52.5922V19.5282H48.2918C46.5058 19.5282 45.2368 20.0804 44.4848 21.1849C43.7328 22.2894 43.3568 23.4526 43.3568 24.6746V30.808H52.5922L50.5477 39.7614H43.3568V65H57.7386C59.7596 65 61.475 64.295 62.885 62.885C64.295 61.475 65 59.7831 65 57.8091V7.26139C65 5.28741 64.295 3.5837 62.885 2.15022C61.475 0.716731 59.7596 0 57.7386 0Z" fill="black"/>
</g>
<defs>
<clipPath id="clip0_150_969">
<rect width="65" height="65" fill="white"/>
</clipPath>
</defs>
</svg>
