<svg width="65" height="65" viewBox="0 0 65 65" fill="none" xmlns="http://www.w3.org/2000/svg">
<g clip-path="url(#clip0_150_971)">
<path d="M32.5 15.7857C30.1866 15.7857 28.0143 16.2078 25.9831 17.0519C23.9518 17.9524 22.1886 19.1483 20.6934 20.6396C19.1981 22.131 17.9991 23.8896 17.0964 25.9156C16.25 27.9416 15.8268 30.1082 15.8268 32.4156C15.8268 34.723 16.25 36.8896 17.0964 38.9156C17.9991 40.9416 19.1981 42.7002 20.6934 44.1916C22.1886 45.6829 23.9518 46.8788 25.9831 47.7792C28.0143 48.6234 30.1866 49.0455 32.5 49.0455C34.8134 49.0455 36.9857 48.6234 39.0169 47.7792C41.0482 46.8788 42.8114 45.6829 44.3066 44.1916C45.8019 42.7002 47.0009 40.9416 47.9036 38.9156C48.75 36.8896 49.1732 34.723 49.1732 32.4156C49.1732 30.1082 48.75 27.9416 47.9036 25.9156C47.0009 23.8896 45.8019 22.131 44.3066 20.6396C42.8114 19.1483 41.0482 17.9524 39.0169 17.0519C36.9857 16.2078 34.8134 15.7857 32.5 15.7857ZM32.5 43.2208C29.5095 43.2208 26.9564 42.1656 24.8405 40.0552C22.7246 37.9448 21.6667 35.3983 21.6667 32.4156C21.6667 29.4329 22.7246 26.8864 24.8405 24.776C26.9564 22.6656 29.5095 21.6104 32.5 21.6104C35.4905 21.6104 38.0436 22.6656 40.1595 24.776C42.2754 26.8864 43.3333 29.4329 43.3333 32.4156C43.3333 35.3983 42.2754 37.9448 40.1595 40.0552C38.0436 42.1656 35.4905 43.2208 32.5 43.2208ZM53.7435 15.1104C53.7435 16.2359 53.3626 17.1645 52.6009 17.8961C51.8392 18.6277 50.9223 18.9935 49.8503 18.9935C48.7782 18.9935 47.8613 18.6277 47.0996 17.8961C46.3379 17.1645 45.957 16.2359 45.957 15.1104C45.957 14.0411 46.3379 13.1407 47.0996 12.4091C47.8613 11.6775 48.7782 11.3117 49.8503 11.3117C50.9223 11.3117 51.8392 11.6775 52.6009 12.4091C53.3626 13.1407 53.7435 14.0411 53.7435 15.1104ZM63.3073 11.2273C62.4609 9.03246 61.2196 7.11906 59.5833 5.48701C57.947 3.85497 56.0569 2.61689 53.9128 1.77273L53.8281 1.68831C52.6432 1.23809 51.3878 0.886364 50.0618 0.633117C48.7359 0.37987 47.3676 0.253247 45.957 0.253247H45.8724C44.1797 0.140692 42.628 0.0703472 41.2174 0.0422078C39.8069 0.0140684 36.9011 0 32.5 0C28.0989 0 25.1931 0.0140684 23.7826 0.0422078C22.372 0.0703472 20.8203 0.140692 19.1276 0.253247C17.717 0.253247 16.3346 0.393939 14.9805 0.675325C13.6263 0.956711 12.3286 1.32251 11.0872 1.77273L11.2565 1.68831C9.05598 2.58875 7.1376 3.85497 5.5013 5.48701C3.86501 7.11906 2.6237 8.97618 1.77734 11.0584L1.69271 11.2273C1.24132 12.3528 0.888672 13.5909 0.634766 14.9416C0.380859 16.2922 0.225694 17.671 0.169271 19.0779C0.112848 20.8225 0.0705304 22.3842 0.0423177 23.763C0.014105 25.1418 0 28.026 0 32.4156C0 36.8052 0.014105 39.7035 0.0423177 41.1104C0.0705304 42.5173 0.112848 44.0931 0.169271 45.8377C0.225694 47.1883 0.380859 48.5108 0.634766 49.8052C0.888672 51.0996 1.24132 52.3939 1.69271 53.6883C2.59549 55.8831 3.86501 57.7965 5.5013 59.4286C7.1376 61.0606 8.99956 62.2987 11.0872 63.1429H11.2565C12.385 63.6494 13.6122 64.0433 14.9382 64.3247C16.2641 64.6061 17.6324 64.7467 19.043 64.7467H19.1276C20.8767 64.8593 22.4425 64.9296 23.8249 64.9578C25.2073 64.9859 28.0989 65 32.5 65C36.9011 65 39.8069 64.9859 41.2174 64.9578C42.628 64.9296 44.2079 64.8593 45.957 64.7467C47.3676 64.7467 48.75 64.6061 50.1042 64.3247C51.4583 64.0433 52.7561 63.6775 53.9974 63.2273L53.8281 63.3117C56.0287 62.4113 57.947 61.145 59.5833 59.513C61.2196 57.8809 62.4609 56.0238 63.3073 53.9416V53.7727C63.8151 52.5346 64.196 51.2543 64.4499 49.9318C64.7038 48.6093 64.8307 47.2727 64.8307 45.9221C64.8872 44.1775 64.9295 42.6158 64.9577 41.237C64.9859 39.8582 65 36.974 65 32.5844C65 28.1385 65 25.2262 65 23.8474C65 22.4686 64.9436 20.9069 64.8307 19.1623C64.8307 17.7554 64.6897 16.3626 64.4075 14.9838C64.1254 13.605 63.7305 12.2965 63.2227 11.0584L63.3073 11.2273ZM58.9062 45.5C58.9062 46.6255 58.8075 47.7089 58.61 48.75C58.4125 49.7911 58.1163 50.79 57.7214 51.7468L57.806 51.5779C57.2417 53.0411 56.4236 54.2933 55.3516 55.3344C54.2795 56.3755 53.0664 57.1775 51.7122 57.7403H51.6276C50.7248 58.1342 49.7656 58.4156 48.75 58.5844C47.7344 58.7532 46.6905 58.8658 45.6185 58.9221C43.8693 58.9784 42.3318 59.0206 41.0059 59.0487C39.6799 59.0768 36.8164 59.0909 32.4154 59.0909C28.0143 59.0909 25.1508 59.0768 23.8249 59.0487C22.4989 59.0206 20.9614 58.9784 19.2122 58.9221C18.0838 58.8658 17.0117 58.7392 15.9961 58.5422C14.9805 58.3452 13.9931 58.0779 13.0339 57.7403H13.1185C11.7079 57.2338 10.4666 56.4459 9.39453 55.3766C8.32248 54.3074 7.50434 53.0693 6.9401 51.6623V51.5779C6.60156 50.7338 6.33355 49.8052 6.13607 48.7922C5.93858 47.7792 5.83984 46.71 5.83984 45.5844C5.727 43.8961 5.67057 42.3766 5.67057 41.026C5.67057 39.6753 5.67057 36.8052 5.67057 32.4156C5.67057 28.026 5.67057 25.1699 5.67057 23.8474C5.67057 22.5249 5.727 20.9914 5.83984 19.2468C5.83984 18.1775 5.93858 17.1223 6.13607 16.0812C6.33355 15.04 6.62977 14.0411 7.02474 13.0844L6.9401 13.1688C7.50434 11.7619 8.32248 10.5238 9.39453 9.45455C10.4666 8.38528 11.7079 7.56927 13.1185 7.00649C14.0213 6.66883 14.9805 6.40152 15.9961 6.20455C17.0117 6.00758 18.0838 5.90909 19.2122 5.90909C20.905 5.85281 22.4284 5.81061 23.7826 5.78247C25.1367 5.75433 28.0143 5.74026 32.4154 5.74026C36.8164 5.74026 39.6799 5.74026 41.0059 5.74026C42.3318 5.74026 43.8693 5.79654 45.6185 5.90909C46.6905 5.90909 47.7344 6.00758 48.75 6.20455C49.7656 6.40152 50.753 6.69697 51.7122 7.09091L51.6276 7.00649C53.0382 7.56927 54.2795 8.38528 55.3516 9.45455C56.4236 10.5238 57.2417 11.7619 57.806 13.1688C58.1445 14.0693 58.4125 15.026 58.61 16.039C58.8075 17.052 58.9062 18.0931 58.9062 19.1623V19.2468C58.9627 20.9351 59.005 22.4545 59.0332 23.8052C59.0614 25.1559 59.0755 28.026 59.0755 32.4156C59.0755 36.8052 59.0755 39.6612 59.0755 40.9838C59.0755 42.3063 59.0473 43.8117 58.9909 45.5H58.9062Z" fill="black"/>
</g>
<defs>
<clipPath id="clip0_150_971">
<rect width="65" height="65" fill="white"/>
</clipPath>
</defs>
</svg>
